<svg width="168" height="50" viewBox="0 0 168 50" xmlns="http://www.w3.org/2000/svg"><path d="M0 31.5V.5h12.7c3.3 0 5.9.7 7.8 2a6.7 6.7 0 0 1 2.8 5.9c0 1.8-.5 3.3-1.5 4.4-1 1.2-2.1 2-3.5 2.4a8.7 8.7 0 0 1 4.8 3 8.3 8.3 0 0 1 1.4 4.7 8 8 0 0 1-.7 3.7c-.5 1-1.2 1.8-2 2.4-.7.6-1.7 1.1-2.7 1.5a14.5 14.5 0 0 1-6 1H0zm3.7-3.6h8.6a37.8 37.8 0 0 0 5-.5c.5-.1 1-.3 1.4-.6.4-.3.8-.6 1-1 .4-.3.6-.8.8-1.3.2-.6.3-1.2.3-2 0-3.5-2.5-5.3-7.4-5.3H3.7V28zm0-14.2h9.7c1.8 0 3.3-.4 4.4-1.2 1.2-.8 1.7-2 1.7-3.6 0-1.8-.6-3-1.8-3.8-1.2-.7-3-1-5.3-1H3.7v9.6zm29 17.8V.5h20.9v3.6H36.4v10h15.9v3.5h-16V28H54v3.6H32.7zm29.5 0V.5h3.2l12.8 19.1L91 .6h3.2v30.9h-3.7v-24L79.3 24.3H77L66 7.6v23.9h-3.7zM102.3 16c0-2 .3-4 1-5.8a13.8 13.8 0 0 1 6.1-7.6c1.5-1 3-1.6 4.5-2A20.8 20.8 0 0 1 128.1 2v3.8a16.2 16.2 0 0 0-8.7-2.3c-1.4 0-2.7.2-4 .5a13.2 13.2 0 0 0-6.5 3.8c-.9 1-1.6 2.1-2 3.5-.6 1.4-.8 3-.8 4.7 0 1.8.2 3.4.7 4.9a10.3 10.3 0 0 0 5.1 5.8c1.2.7 2.4 1.1 3.6 1.4 1.3.2 2.6.4 4 .4a13 13 0 0 0 5.7-1.2V15h3.7v15a23 23 0 0 1-14.8 1.5 16.6 16.6 0 0 1-8.3-4.8c-1-1.2-2-2.8-2.5-4.6-.7-1.8-1-3.9-1-6.1zm33.2 0a17.6 17.6 0 0 1 2.6-9.1 14.5 14.5 0 0 1 7.8-6c1.8-.6 3.8-.9 5.9-.9 2 0 4 .3 5.8.9a14.4 14.4 0 0 1 7.8 6c.9 1.4 1.6 2.8 2 4.4a17.9 17.9 0 0 1-2 13.8c-.9 1.3-2 2.5-3.2 3.6-1.3 1-2.8 1.8-4.6 2.4-1.8.6-3.7.9-5.8.9-2.1 0-4-.3-5.9-.9a14.4 14.4 0 0 1-7.8-6 15.8 15.8 0 0 1-2.6-9.1zm3.8 0c0 1.3.2 2.5.5 3.7a12 12 0 0 0 4 6.2c1 .8 2 1.4 3.5 1.9 1.3.4 2.8.7 4.5.7 2 0 3.8-.4 5.5-1 1.6-.8 2.9-1.7 3.9-2.9s1.7-2.5 2.3-4a13.8 13.8 0 0 0-2.3-13.2c-1-1.2-2.3-2.1-4-2.8-1.6-.7-3.4-1-5.4-1-2 0-3.9.3-5.5 1s-3 1.6-4 2.8a13.8 13.8 0 0 0-3 8.6z" fill="#1C1C1C" fill-rule="evenodd"/></svg>