<svg xmlns="http://www.w3.org/2000/svg" xmlns:xlink="http://www.w3.org/1999/xlink" viewBox="0 0 1200 630"><defs><filter id="f" width="154.2%" height="146.8%" x="-27.1%" y="-16.7%" filterUnits="objectBoundingBox"><feOffset dy="2" in="SourceAlpha" result="shadowOffsetOuter1"/><feGaussianBlur in="shadowOffsetOuter1" result="shadowBlurOuter1" stdDeviation="2"/><feColorMatrix in="shadowBlurOuter1" values="0 0 0 0 0 0 0 0 0 0 0 0 0 0 0 0 0 0 0.154993444 0"/></filter><filter id="h" width="407%" height="149%" x="-153.5%" y="-17.5%" filterUnits="objectBoundingBox"><feOffset dy="2" in="SourceAlpha" result="shadowOffsetOuter1"/><feGaussianBlur in="shadowOffsetOuter1" result="shadowBlurOuter1" stdDeviation="2"/><feColorMatrix in="shadowBlurOuter1" values="0 0 0 0 0 0 0 0 0 0 0 0 0 0 0 0 0 0 0.154993444 0"/></filter><filter id="j" width="407%" height="149%" x="-153.5%" y="-17.5%" filterUnits="objectBoundingBox"><feOffset dy="2" in="SourceAlpha" result="shadowOffsetOuter1"/><feGaussianBlur in="shadowOffsetOuter1" result="shadowBlurOuter1" stdDeviation="2"/><feColorMatrix in="shadowBlurOuter1" values="0 0 0 0 0 0 0 0 0 0 0 0 0 0 0 0 0 0 0.154993444 0"/></filter><filter id="l" width="171.7%" height="164.2%" x="-35.9%" y="-22.9%" filterUnits="objectBoundingBox"><feOffset dy="2" in="SourceAlpha" result="shadowOffsetOuter1"/><feGaussianBlur in="shadowOffsetOuter1" result="shadowBlurOuter1" stdDeviation="2"/><feColorMatrix in="shadowBlurOuter1" values="0 0 0 0 0 0 0 0 0 0 0 0 0 0 0 0 0 0 0.154993444 0"/></filter><filter id="n" width="173.1%" height="149%" x="-36.5%" y="-17.5%" filterUnits="objectBoundingBox"><feOffset dy="2" in="SourceAlpha" result="shadowOffsetOuter1"/><feGaussianBlur in="shadowOffsetOuter1" result="shadowBlurOuter1" stdDeviation="2"/><feColorMatrix in="shadowBlurOuter1" values="0 0 0 0 0 0 0 0 0 0 0 0 0 0 0 0 0 0 0.154993444 0"/></filter><filter id="p" width="146.7%" height="165.9%" x="-23.3%" y="-23.5%" filterUnits="objectBoundingBox"><feOffset dy="2" in="SourceAlpha" result="shadowOffsetOuter1"/><feGaussianBlur in="shadowOffsetOuter1" result="shadowBlurOuter1" stdDeviation="2"/><feColorMatrix in="shadowBlurOuter1" values="0 0 0 0 0 0 0 0 0 0 0 0 0 0 0 0 0 0 0.154993444 0"/></filter><filter id="r" width="170.5%" height="164.2%" x="-35.3%" y="-22.9%" filterUnits="objectBoundingBox"><feOffset dy="2" in="SourceAlpha" result="shadowOffsetOuter1"/><feGaussianBlur in="shadowOffsetOuter1" result="shadowBlurOuter1" stdDeviation="2"/><feColorMatrix in="shadowBlurOuter1" values="0 0 0 0 0 0 0 0 0 0 0 0 0 0 0 0 0 0 0.154993444 0"/></filter><filter id="t" width="174.9%" height="194.3%" x="-37.5%" y="-41%" filterUnits="objectBoundingBox"><feMorphology in="SourceAlpha" operator="dilate" radius="3" result="shadowSpreadOuter1"/><feOffset dy="2" in="shadowSpreadOuter1" result="shadowOffsetOuter1"/><feMorphology in="SourceAlpha" radius="3" result="shadowInner"/><feOffset dy="2" in="shadowInner" result="shadowInner"/><feComposite in="shadowOffsetOuter1" in2="shadowInner" operator="out" result="shadowOffsetOuter1"/><feGaussianBlur in="shadowOffsetOuter1" result="shadowBlurOuter1" stdDeviation="2"/><feColorMatrix in="shadowBlurOuter1" values="0 0 0 0 0 0 0 0 0 0 0 0 0 0 0 0 0 0 0.153081294 0"/></filter><filter id="v" width="131.8%" height="131.8%" x="-15.9%" y="-11.4%" filterUnits="objectBoundingBox"><feOffset dy="2" in="SourceAlpha" result="shadowOffsetOuter1"/><feGaussianBlur in="shadowOffsetOuter1" result="shadowBlurOuter1" stdDeviation="2"/><feColorMatrix in="shadowBlurOuter1" values="0 0 0 0 0 0 0 0 0 0 0 0 0 0 0 0 0 0 0.151059878 0"/></filter><filter id="y" width="138.6%" height="138.6%" x="-19.3%" y="-14.8%" filterUnits="objectBoundingBox"><feMorphology in="SourceAlpha" operator="dilate" radius="1.5" result="shadowSpreadOuter1"/><feOffset dy="2" in="shadowSpreadOuter1" result="shadowOffsetOuter1"/><feGaussianBlur in="shadowOffsetOuter1" result="shadowBlurOuter1" stdDeviation="2"/><feComposite in="shadowBlurOuter1" in2="SourceAlpha" operator="out" result="shadowBlurOuter1"/><feColorMatrix in="shadowBlurOuter1" values="0 0 0 0 0 0 0 0 0 0 0 0 0 0 0 0 0 0 0.151059878 0"/></filter><path id="a" d="M0 0h1200v630H0z"/><path id="g" d="M20.8 9.76a10.125 10.125 0 0 0-.88-2.28 6.307 6.307 0 0 0-1.44-1.8 6.398 6.398 0 0 0-2.06-1.18c-.787-.28-1.7-.42-2.74-.42-1.52 0-2.833.307-3.94.92a7.725 7.725 0 0 0-2.7 2.46c-.693 1.027-1.207 2.193-1.54 3.5-.333 1.307-.5 2.64-.5 4 0 1.36.167 2.693.5 4 .333 1.307.847 2.473 1.54 3.5a7.725 7.725 0 0 0 2.7 2.46c1.107.613 2.42.92 3.94.92 1.12 0 2.107-.193 2.96-.58a6.59 6.59 0 0 0 2.2-1.6 7.529 7.529 0 0 0 1.44-2.38c.347-.907.573-1.88.68-2.92h4.88c-.107 1.707-.473 3.267-1.1 4.68a11.476 11.476 0 0 1-2.54 3.66 11.223 11.223 0 0 1-3.76 2.38c-1.44.56-3.027.84-4.76.84-2.133 0-4.047-.393-5.74-1.18-1.693-.787-3.127-1.86-4.3-3.22s-2.073-2.947-2.7-4.76C.313 18.947 0 17.013 0 14.96c0-2.027.313-3.947.94-5.76.627-1.813 1.527-3.4 2.7-4.76C4.813 3.08 6.247 2 7.94 1.2 9.633.4 11.547 0 13.68 0c1.6 0 3.107.22 4.52.66 1.413.44 2.66 1.08 3.74 1.92a9.972 9.972 0 0 1 2.62 3.06c.667 1.2 1.08 2.573 1.24 4.12h-5Z"/><path id="i" d="M30.88.68h4.56v28.56h-4.56z"/><path id="k" d="M41.52.68h4.56V5h-4.56V.68Zm0 7.88h4.56v20.68h-4.56V8.56Z"/><path id="m" d="M66 15.48c-.187-1.28-.7-2.247-1.54-2.9-.84-.653-1.9-.98-3.18-.98-.587 0-1.213.1-1.88.3-.667.2-1.28.573-1.84 1.12-.56.547-1.027 1.307-1.4 2.28-.373.973-.56 2.247-.56 3.82 0 .853.1 1.707.3 2.56.2.853.52 1.613.96 2.28a5.2 5.2 0 0 0 1.7 1.62c.693.413 1.533.62 2.52.62 1.333 0 2.433-.413 3.3-1.24s1.407-1.987 1.62-3.48h4.56c-.427 2.693-1.447 4.753-3.06 6.18-1.613 1.427-3.753 2.14-6.42 2.14-1.627 0-3.06-.273-4.3-.82-1.24-.547-2.287-1.293-3.14-2.24-.853-.947-1.5-2.073-1.94-3.38-.44-1.307-.66-2.72-.66-4.24 0-1.547.213-3 .64-4.36.427-1.36 1.067-2.54 1.92-3.54s1.913-1.787 3.18-2.36c1.267-.573 2.753-.86 4.46-.86 1.2 0 2.34.153 3.42.46 1.08.307 2.04.767 2.88 1.38a7.345 7.345 0 0 1 2.06 2.32c.533.933.853 2.04.96 3.32H66Z"/><path id="o" d="M75.4.68h4.56v16.24l8.24-8.36h5.6l-7.92 7.6 8.68 13.08H89L82.68 19.2l-2.72 2.64v7.4H75.4z"/><path id="q" d="M109.88 8.56h4.32v2.88h.12c.347-.507.72-.973 1.12-1.4a6.11 6.11 0 0 1 1.34-1.08 6.777 6.777 0 0 1 1.7-.7c.64-.173 1.373-.26 2.2-.26 1.253 0 2.42.28 3.5.84 1.08.56 1.847 1.427 2.3 2.6.773-1.067 1.667-1.907 2.68-2.52 1.013-.613 2.28-.92 3.8-.92 2.187 0 3.887.533 5.1 1.6 1.213 1.067 1.82 2.853 1.82 5.36v14.28h-4.56V17.16c0-.827-.027-1.58-.08-2.26-.053-.68-.207-1.267-.46-1.76a2.616 2.616 0 0 0-1.14-1.14c-.507-.267-1.2-.4-2.08-.4-1.547 0-2.667.48-3.36 1.44-.693.96-1.04 2.32-1.04 4.08v12.12h-4.56V15.96c0-1.44-.26-2.527-.78-3.26-.52-.733-1.473-1.1-2.86-1.1a4.237 4.237 0 0 0-3.14 1.4c-.413.453-.747 1.013-1 1.68s-.38 1.427-.38 2.28v12.28h-4.56V8.56Z"/><path id="s" d="M159.88 17.08a7.353 7.353 0 0 0-.46-2.08 5.542 5.542 0 0 0-1.04-1.74 5.15 5.15 0 0 0-1.6-1.2c-.627-.307-1.327-.46-2.1-.46-.8 0-1.527.14-2.18.42a4.986 4.986 0 0 0-1.68 1.16 5.737 5.737 0 0 0-1.12 1.74 6.07 6.07 0 0 0-.46 2.16h10.64Zm-10.64 3c0 .8.113 1.573.34 2.32.227.747.567 1.4 1.02 1.96a4.916 4.916 0 0 0 1.72 1.34c.693.333 1.52.5 2.48.5 1.333 0 2.407-.287 3.22-.86.813-.573 1.42-1.433 1.82-2.58h4.32c-.24 1.12-.653 2.12-1.24 3a8.628 8.628 0 0 1-2.12 2.22 9.15 9.15 0 0 1-2.78 1.36c-1.027.307-2.1.46-3.22.46-1.627 0-3.067-.267-4.32-.8-1.253-.533-2.313-1.28-3.18-2.24-.867-.96-1.52-2.107-1.96-3.44-.44-1.333-.66-2.8-.66-4.4 0-1.467.233-2.86.7-4.18a10.7 10.7 0 0 1 2-3.48 9.565 9.565 0 0 1 3.14-2.38c1.227-.587 2.613-.88 4.16-.88 1.627 0 3.087.34 4.38 1.02a9.611 9.611 0 0 1 3.22 2.7c.853 1.12 1.473 2.407 1.86 3.86.387 1.453.487 2.953.3 4.5h-15.2Z"/><path id="u" d="m104.759 120.3 11.25 11.25 18.75-22.5"/><linearGradient id="c" x1="243.23%" x2="243.23%" y1="90.47%" y2="4.899%"><stop offset="0%" stop-color="#0071E3"/><stop offset="100%" stop-color="#00C16A"/></linearGradient><linearGradient id="d" x1="243.23%" x2="243.23%" y1="90.47%" y2="4.899%"><stop offset="0%" stop-color="#0071E3"/><stop offset="100%" stop-color="#00C16A"/></linearGradient><linearGradient id="e" x1="243.23%" x2="243.23%" y1="90.47%" y2="4.899%"><stop offset="0%" stop-color="#0071E3"/><stop offset="100%" stop-color="#00C16A"/></linearGradient><linearGradient id="x" x1="8.435%" x2="68.362%" y1="46.358%" y2="43.124%"><stop offset="0%" stop-color="#0071E3"/><stop offset="100%" stop-color="#2F77EC"/><stop offset="100%" stop-color="#2F77EC"/></linearGradient><circle id="w" cx="99.143" cy="122" r="22"/><circle id="z" cx="157.701" cy="120.101" r="22"/></defs><g fill="none" fill-rule="evenodd"><mask id="b" fill="#fff"><use xlink:href="#a"/></mask><use xlink:href="#a" fill="#161616"/><g fill-rule="nonzero" mask="url(#b)"><path fill="url(#c)" d="M10.5 55.502c0-6 19.5 4.5 19.5 9v25.5c0 4-6.5 6-19.5 5.998V55.502Z" transform="translate(70 60)"/><path fill="url(#d)" d="M1.5 40.503c-3-.9-1.5-13.05 4.5-11.996 15.813 2.751 50.999 7.496 55.499 25.495 1.5 6-10.5 12-12 9-6-12-21-18.002-47.999-22.5Z" transform="translate(70 60)"/><path fill="url(#e)" d="M4.528 0c27.17 1.36 91.47 9.51 91.47 48S66.111 95.997 43.471 95.997c-3.623 0-4.529-18.565 0-19.47 15.395-.905 29.887-4.075 29.887-23.547 0-24-57.51-33.96-66.566-36.677C-1.45 13.586-2.173-.09 4.527 0h.001Z" transform="translate(70 60)"/></g><g mask="url(#b)"><g transform="rotate(-15 301.795 -2085.305)"><rect width="520" height="240" fill="#FFF" rx="30"/><rect width="320" height="100" x="100.149" y="70.44" fill="#0071E3" fill-rule="nonzero" rx="50"/><g fill-rule="nonzero"><g transform="translate(177.318 104.353)"><use xlink:href="#g" fill="#000" filter="url(#f)"/><use xlink:href="#g" fill="#FFF"/></g><g transform="translate(177.318 104.353)"><use xlink:href="#i" fill="#000" filter="url(#h)"/><use xlink:href="#i" fill="#FFF"/></g><g transform="translate(177.318 104.353)"><use xlink:href="#k" fill="#000" filter="url(#j)"/><use xlink:href="#k" fill="#FFF"/></g><g transform="translate(177.318 104.353)"><use xlink:href="#m" fill="#000" filter="url(#l)"/><use xlink:href="#m" fill="#FFF"/></g><g transform="translate(177.318 104.353)"><use xlink:href="#o" fill="#000" filter="url(#n)"/><use xlink:href="#o" fill="#FFF"/></g><g transform="translate(177.318 104.353)"><use xlink:href="#q" fill="#000" filter="url(#p)"/><use xlink:href="#q" fill="#FFF"/></g><g transform="translate(177.318 104.353)"><use xlink:href="#s" fill="#000" filter="url(#r)"/><use xlink:href="#s" fill="#FFF"/></g></g></g><rect width="240" height="240" fill="#FFF" rx="30" transform="rotate(-15 21.795 -4212.116)"/><g transform="rotate(-15 1225.2 -3288.71)"><rect width="240" height="240" fill="#FFF" rx="30"/><path fill="#0071E3" fill-rule="nonzero" d="M89.759 138.3v-36c0-4.2 0-6.302.817-7.906a7.496 7.496 0 0 1 3.277-3.277c1.604-.817 3.706-.817 7.906-.817h36c4.2 0 6.298 0 7.902.817a7.504 7.504 0 0 1 3.28 3.277c.818 1.603.818 3.702.818 7.894v36.025c0 4.192 0 6.289-.817 7.891a7.508 7.508 0 0 1-3.28 3.28c-1.603.816-3.7.816-7.892.816h-36.023c-4.192 0-6.291 0-7.894-.817a7.5 7.5 0 0 1-3.277-3.279c-.817-1.604-.817-3.703-.817-7.903Z"/><g stroke-linecap="round" stroke-linejoin="round"><use xlink:href="#u" fill="#000" filter="url(#t)"/><use xlink:href="#u" stroke="#FFF" stroke-width="6"/></g></g><rect width="240" height="240" fill="#FFF" rx="30" transform="rotate(-15 1085.2 -4352.116)"/><g transform="rotate(-15 1365.2 -2225.305)"><rect width="240" height="240" fill="#FFF" rx="30"/><rect width="110" height="60" x="68.571" y="91.429" fill="#0071E3" fill-rule="nonzero" rx="30"/><g fill-rule="nonzero"><use xlink:href="#w" fill="#000" filter="url(#v)"/><use xlink:href="#w" fill="#FFF"/></g></g><g transform="rotate(-15 2428.606 -2365.305)"><rect width="240" height="240" fill="#FFF" rx="30"/><circle cx="119.443" cy="120.266" r="40" stroke="#0071E3" stroke-width="10"/></g><g transform="rotate(-15 2288.606 -3428.71)"><rect width="520" height="240" fill="#FFF" rx="30"/><rect width="360" height="10" x="79.548" y="115.003" fill="#1A1A1A" fill-opacity=".901" rx="5"/><rect width="100" height="10" x="79.548" y="115.003" fill="url(#x)" rx="5"/><g fill-rule="nonzero"><use xlink:href="#z" fill="#000" filter="url(#y)"/><use xlink:href="#z" fill="#FFF" stroke="#0071E3" stroke-width="3"/></g></g></g><g fill-rule="nonzero" mask="url(#b)"><path fill="#E1E1E1" d="M74.896 293.864c0-1.888.248-3.728.744-5.52.496-1.792 1.264-3.4 2.304-4.824 1.04-1.424 2.376-2.568 4.008-3.432 1.632-.864 3.584-1.296 5.856-1.296s4.216.432 5.832 1.296c1.616.864 2.944 2.008 3.984 3.432s1.808 3.032 2.304 4.824c.496 1.792.744 3.632.744 5.52 0 1.856-.248 3.688-.744 5.496-.496 1.808-1.264 3.424-2.304 4.848-1.04 1.424-2.368 2.568-3.984 3.432-1.616.864-3.56 1.296-5.832 1.296s-4.224-.432-5.856-1.296c-1.632-.864-2.968-2.008-4.008-3.432s-1.808-3.04-2.304-4.848a20.684 20.684 0 0 1-.744-5.496Zm-3.264 0c0 2.368.336 4.624 1.008 6.768.672 2.144 1.68 4.032 3.024 5.664 1.344 1.632 3.032 2.936 5.064 3.912s4.392 1.464 7.08 1.464c2.688 0 5.04-.488 7.056-1.464s3.696-2.28 5.04-3.912c1.344-1.632 2.352-3.52 3.024-5.664.672-2.144 1.008-4.4 1.008-6.768 0-2.368-.336-4.624-1.008-6.768-.672-2.144-1.68-4.04-3.024-5.688-1.344-1.648-3.024-2.96-5.04-3.936s-4.368-1.464-7.056-1.464c-2.688 0-5.048.488-7.08 1.464s-3.72 2.288-5.064 3.936c-1.344 1.648-2.352 3.544-3.024 5.688-.672 2.144-1.008 4.4-1.008 6.768ZM109.448 286.232v33.888h3.024v-13.824h.096a7.16 7.16 0 0 0 1.368 2.352 8.228 8.228 0 0 0 2.04 1.68c.768.448 1.6.784 2.496 1.008.896.224 1.792.336 2.688.336 1.888 0 3.528-.344 4.92-1.032a9.854 9.854 0 0 0 3.48-2.832c.928-1.2 1.616-2.592 2.064-4.176.448-1.584.672-3.256.672-5.016 0-1.76-.224-3.432-.672-5.016-.448-1.584-1.136-2.976-2.064-4.176a10.094 10.094 0 0 0-3.48-2.856c-1.392-.704-3.032-1.056-4.92-1.056-2.016 0-3.816.472-5.4 1.416-1.584.944-2.728 2.28-3.432 4.008h-.096v-4.704h-2.784Zm19.824 12.384c0 1.28-.152 2.552-.456 3.816-.304 1.264-.784 2.392-1.44 3.384a7.93 7.93 0 0 1-2.52 2.424c-1.024.624-2.256.936-3.696.936-1.6 0-2.952-.312-4.056-.936a8.015 8.015 0 0 1-2.688-2.424c-.688-.992-1.184-2.12-1.488-3.384a16.265 16.265 0 0 1-.456-3.816c0-1.408.136-2.752.408-4.032.272-1.28.744-2.4 1.416-3.36.672-.96 1.568-1.728 2.688-2.304 1.12-.576 2.512-.864 4.176-.864 1.44 0 2.672.312 3.696.936a7.93 7.93 0 0 1 2.52 2.424c.656.992 1.136 2.12 1.44 3.384.304 1.264.456 2.536.456 3.816ZM155.808 296.888h-16.032c.128-1.12.392-2.216.792-3.288a9.805 9.805 0 0 1 1.608-2.832 7.73 7.73 0 0 1 2.448-1.968c.96-.496 2.064-.744 3.312-.744 1.216 0 2.304.248 3.264.744a7.73 7.73 0 0 1 2.448 1.968 9.067 9.067 0 0 1 1.56 2.808c.368 1.056.568 2.16.6 3.312Zm-16.032 2.544h19.056a19.59 19.59 0 0 0-.48-5.112c-.384-1.68-1.016-3.168-1.896-4.464a10.13 10.13 0 0 0-3.432-3.144c-1.408-.8-3.104-1.2-5.088-1.2-1.952 0-3.64.376-5.064 1.128-1.424.752-2.584 1.744-3.48 2.976-.896 1.232-1.56 2.632-1.992 4.2a17.99 17.99 0 0 0-.648 4.8c0 1.76.216 3.432.648 5.016.432 1.584 1.096 2.976 1.992 4.176.896 1.2 2.056 2.144 3.48 2.832 1.424.688 3.112 1.032 5.064 1.032 3.136 0 5.56-.768 7.272-2.304 1.712-1.536 2.888-3.712 3.528-6.528h-3.024c-.48 1.92-1.344 3.456-2.592 4.608-1.248 1.152-2.976 1.728-5.184 1.728-1.44 0-2.672-.304-3.696-.912a8.381 8.381 0 0 1-2.544-2.304 9.299 9.299 0 0 1-1.464-3.144 13.42 13.42 0 0 1-.456-3.384ZM163.864 286.232V311h3.024v-14.448c.032-1.216.232-2.344.6-3.384s.88-1.936 1.536-2.688a7.013 7.013 0 0 1 2.4-1.776c.944-.432 2.024-.648 3.24-.648 1.216 0 2.232.192 3.048.576.816.384 1.464.912 1.944 1.584s.816 1.464 1.008 2.376c.192.912.288 1.896.288 2.952V311h3.024v-15.936c0-1.472-.144-2.8-.432-3.984-.288-1.184-.784-2.184-1.488-3-.704-.816-1.64-1.448-2.808-1.896-1.168-.448-2.616-.672-4.344-.672-1.76 0-3.376.456-4.848 1.368-1.472.912-2.496 2.12-3.072 3.624h-.096v-4.272h-3.024ZM207.144 299.72h-3.264c-.096 2.112.184 3.92.84 5.424.656 1.504 1.592 2.736 2.808 3.696 1.216.96 2.688 1.672 4.416 2.136 1.728.464 3.6.696 5.616.696 2.016 0 3.744-.184 5.184-.552 1.44-.368 2.648-.848 3.624-1.44s1.744-1.256 2.304-1.992c.56-.736.992-1.464 1.296-2.184.304-.72.496-1.4.576-2.04.08-.64.12-1.152.12-1.536 0-1.408-.232-2.608-.696-3.6a7.294 7.294 0 0 0-1.92-2.52 11.359 11.359 0 0 0-2.832-1.728 24.013 24.013 0 0 0-3.432-1.176l-8.352-2.064a12.59 12.59 0 0 1-1.992-.624 5.96 5.96 0 0 1-1.656-1.008 4.412 4.412 0 0 1-1.128-1.512c-.272-.592-.408-1.288-.408-2.088 0-1.28.24-2.352.72-3.216a5.964 5.964 0 0 1 1.896-2.088c.784-.528 1.696-.912 2.736-1.152 1.04-.24 2.12-.36 3.24-.36 1.216 0 2.376.168 3.48.504a9.033 9.033 0 0 1 2.928 1.488 7.663 7.663 0 0 1 2.064 2.448c.528.976.824 2.12.888 3.432h3.264c0-1.76-.344-3.304-1.032-4.632a9.992 9.992 0 0 0-2.76-3.336c-1.152-.896-2.496-1.568-4.032-2.016a17.229 17.229 0 0 0-4.848-.672c-2.4 0-4.368.344-5.904 1.032-1.536.688-2.744 1.528-3.624 2.52-.88.992-1.48 2.048-1.8 3.168-.32 1.12-.48 2.096-.48 2.928 0 1.344.216 2.48.648 3.408.432.928 1 1.712 1.704 2.352a8.267 8.267 0 0 0 2.472 1.536c.944.384 1.912.704 2.904.96l7.632 1.872c.8.192 1.616.44 2.448.744a9.903 9.903 0 0 1 2.28 1.176 5.925 5.925 0 0 1 1.68 1.776c.432.704.648 1.536.648 2.496 0 1.248-.304 2.312-.912 3.192a7.532 7.532 0 0 1-2.28 2.16c-.912.56-1.896.968-2.952 1.224s-2.032.384-2.928.384c-1.568 0-3.04-.152-4.416-.456-1.376-.304-2.568-.808-3.576-1.512s-1.8-1.648-2.376-2.832c-.576-1.184-.848-2.656-.816-4.416ZM246.736 288.056c1.44 0 2.704.304 3.792.912a8.325 8.325 0 0 1 2.712 2.4c.72.992 1.264 2.12 1.632 3.384.368 1.264.552 2.552.552 3.864 0 1.312-.184 2.6-.552 3.864a10.889 10.889 0 0 1-1.632 3.384 8.325 8.325 0 0 1-2.712 2.4c-1.088.608-2.352.912-3.792.912s-2.704-.304-3.792-.912a8.325 8.325 0 0 1-2.712-2.4 10.889 10.889 0 0 1-1.632-3.384 13.755 13.755 0 0 1-.552-3.864c0-1.312.184-2.6.552-3.864a10.889 10.889 0 0 1 1.632-3.384 8.325 8.325 0 0 1 2.712-2.4c1.088-.608 2.352-.912 3.792-.912Zm0-2.544c-1.888 0-3.56.352-5.016 1.056-1.456.704-2.68 1.648-3.672 2.832s-1.744 2.568-2.256 4.152c-.512 1.584-.768 3.272-.768 5.064 0 1.792.256 3.48.768 5.064s1.264 2.968 2.256 4.152c.992 1.184 2.216 2.12 3.672 2.808 1.456.688 3.128 1.032 5.016 1.032s3.56-.344 5.016-1.032c1.456-.688 2.68-1.624 3.672-2.808.992-1.184 1.744-2.568 2.256-4.152.512-1.584.768-3.272.768-5.064 0-1.792-.256-3.48-.768-5.064s-1.264-2.968-2.256-4.152c-.992-1.184-2.216-2.128-3.672-2.832-1.456-.704-3.128-1.056-5.016-1.056ZM284.024 311v-24.768H281v13.008a15.68 15.68 0 0 1-.432 3.672c-.288 1.2-.736 2.264-1.344 3.192a7.135 7.135 0 0 1-2.304 2.232c-.928.56-2.048.84-3.36.84-2.4 0-4.088-.576-5.064-1.728-.976-1.152-1.496-2.848-1.56-5.088v-16.128h-3.024v16.08c0 1.472.16 2.784.48 3.936.32 1.152.824 2.128 1.512 2.928.688.8 1.584 1.416 2.688 1.848 1.104.432 2.44.648 4.008.648 1.856 0 3.544-.44 5.064-1.32 1.52-.88 2.68-2.152 3.48-3.816h.096V311h2.784ZM290.736 286.232V311h3.024v-13.2c0-1.312.224-2.52.672-3.624a8.34 8.34 0 0 1 1.896-2.856 8.425 8.425 0 0 1 2.904-1.848c1.12-.432 2.368-.616 3.744-.552v-3.024c-2.24-.096-4.168.4-5.784 1.488-1.616 1.088-2.808 2.64-3.576 4.656h-.096v-5.808h-2.784ZM323.464 294.008h3.024c-.352-2.848-1.448-4.976-3.288-6.384-1.84-1.408-4.088-2.112-6.744-2.112-1.888 0-3.56.352-5.016 1.056-1.456.704-2.68 1.648-3.672 2.832s-1.744 2.568-2.256 4.152c-.512 1.584-.768 3.272-.768 5.064 0 1.792.256 3.48.768 5.064s1.264 2.968 2.256 4.152c.992 1.184 2.216 2.12 3.672 2.808 1.456.688 3.128 1.032 5.016 1.032 2.816 0 5.12-.84 6.912-2.52 1.792-1.68 2.896-4.024 3.312-7.032h-3.024a8.246 8.246 0 0 1-.768 2.832 7.823 7.823 0 0 1-1.584 2.232 7.092 7.092 0 0 1-2.208 1.464 6.706 6.706 0 0 1-2.64.528c-1.44 0-2.704-.304-3.792-.912a8.325 8.325 0 0 1-2.712-2.4 10.889 10.889 0 0 1-1.632-3.384 13.755 13.755 0 0 1-.552-3.864c0-1.312.184-2.6.552-3.864a10.889 10.889 0 0 1 1.632-3.384 8.325 8.325 0 0 1 2.712-2.4c1.088-.608 2.352-.912 3.792-.912 2.016 0 3.584.528 4.704 1.584 1.12 1.056 1.888 2.512 2.304 4.368ZM349.712 296.888H333.68c.128-1.12.392-2.216.792-3.288a9.805 9.805 0 0 1 1.608-2.832 7.73 7.73 0 0 1 2.448-1.968c.96-.496 2.064-.744 3.312-.744 1.216 0 2.304.248 3.264.744a7.73 7.73 0 0 1 2.448 1.968 9.067 9.067 0 0 1 1.56 2.808c.368 1.056.568 2.16.6 3.312Zm-16.032 2.544h19.056a19.59 19.59 0 0 0-.48-5.112c-.384-1.68-1.016-3.168-1.896-4.464a10.13 10.13 0 0 0-3.432-3.144c-1.408-.8-3.104-1.2-5.088-1.2-1.952 0-3.64.376-5.064 1.128-1.424.752-2.584 1.744-3.48 2.976-.896 1.232-1.56 2.632-1.992 4.2a17.99 17.99 0 0 0-.648 4.8c0 1.76.216 3.432.648 5.016.432 1.584 1.096 2.976 1.992 4.176.896 1.2 2.056 2.144 3.48 2.832 1.424.688 3.112 1.032 5.064 1.032 3.136 0 5.56-.768 7.272-2.304 1.712-1.536 2.888-3.712 3.528-6.528h-3.024c-.48 1.92-1.344 3.456-2.592 4.608-1.248 1.152-2.976 1.728-5.184 1.728-1.44 0-2.672-.304-3.696-.912a8.381 8.381 0 0 1-2.544-2.304 9.299 9.299 0 0 1-1.464-3.144 13.42 13.42 0 0 1-.456-3.384ZM73.12 348.728v21.936c0 1.76.248 3.432.744 5.016s1.28 2.968 2.352 4.152c1.072 1.184 2.448 2.12 4.128 2.808 1.68.688 3.704 1.032 6.072 1.032 2.4 0 4.44-.344 6.12-1.032 1.68-.688 3.056-1.624 4.128-2.808 1.072-1.184 1.856-2.568 2.352-4.152a16.69 16.69 0 0 0 .744-5.016v-21.936h-3.264v21.216c0 1.984-.224 3.672-.672 5.064-.448 1.392-1.104 2.528-1.968 3.408-.864.88-1.92 1.52-3.168 1.92-1.248.4-2.672.6-4.272.6-1.568 0-2.976-.2-4.224-.6-1.248-.4-2.304-1.04-3.168-1.92-.864-.88-1.52-2.016-1.968-3.408-.448-1.392-.672-3.08-.672-5.064v-21.216H73.12ZM107.576 348.728V383h3.264v-34.272zM158.392 359.096h3.264c-.224-1.792-.76-3.376-1.608-4.752a12.448 12.448 0 0 0-3.168-3.48 13.829 13.829 0 0 0-4.224-2.136 16.073 16.073 0 0 0-4.776-.72c-2.688 0-5.048.488-7.08 1.464s-3.72 2.288-5.064 3.936c-1.344 1.648-2.352 3.544-3.024 5.688-.672 2.144-1.008 4.4-1.008 6.768 0 2.368.336 4.624 1.008 6.768.672 2.144 1.68 4.032 3.024 5.664 1.344 1.632 3.032 2.936 5.064 3.912s4.392 1.464 7.08 1.464c2.016 0 3.848-.32 5.496-.96 1.648-.64 3.08-1.552 4.296-2.736 1.216-1.184 2.208-2.624 2.976-4.32.768-1.696 1.264-3.6 1.488-5.712h-3.264a14.505 14.505 0 0 1-1.104 4.296 12.077 12.077 0 0 1-2.256 3.48 10.231 10.231 0 0 1-3.312 2.352c-1.28.576-2.72.864-4.32.864-2.272 0-4.224-.432-5.856-1.296-1.632-.864-2.968-2.008-4.008-3.432s-1.808-3.04-2.304-4.848a20.684 20.684 0 0 1-.744-5.496c0-1.888.248-3.728.744-5.52.496-1.792 1.264-3.4 2.304-4.824 1.04-1.424 2.376-2.568 4.008-3.432 1.632-.864 3.584-1.296 5.856-1.296 1.248 0 2.44.184 3.576.552 1.136.368 2.176.904 3.12 1.608a9.643 9.643 0 0 1 2.4 2.616c.656 1.04 1.128 2.216 1.416 3.528ZM178.016 360.056c1.44 0 2.704.304 3.792.912a8.325 8.325 0 0 1 2.712 2.4c.72.992 1.264 2.12 1.632 3.384.368 1.264.552 2.552.552 3.864 0 1.312-.184 2.6-.552 3.864a10.889 10.889 0 0 1-1.632 3.384 8.325 8.325 0 0 1-2.712 2.4c-1.088.608-2.352.912-3.792.912s-2.704-.304-3.792-.912a8.325 8.325 0 0 1-2.712-2.4 10.889 10.889 0 0 1-1.632-3.384 13.755 13.755 0 0 1-.552-3.864c0-1.312.184-2.6.552-3.864a10.889 10.889 0 0 1 1.632-3.384 8.325 8.325 0 0 1 2.712-2.4c1.088-.608 2.352-.912 3.792-.912Zm0-2.544c-1.888 0-3.56.352-5.016 1.056-1.456.704-2.68 1.648-3.672 2.832s-1.744 2.568-2.256 4.152c-.512 1.584-.768 3.272-.768 5.064 0 1.792.256 3.48.768 5.064s1.264 2.968 2.256 4.152c.992 1.184 2.216 2.12 3.672 2.808 1.456.688 3.128 1.032 5.016 1.032s3.56-.344 5.016-1.032c1.456-.688 2.68-1.624 3.672-2.808.992-1.184 1.744-2.568 2.256-4.152.512-1.584.768-3.272.768-5.064 0-1.792-.256-3.48-.768-5.064s-1.264-2.968-2.256-4.152c-.992-1.184-2.216-2.128-3.672-2.832-1.456-.704-3.128-1.056-5.016-1.056ZM195.24 358.232V383h3.024v-13.824c0-1.312.144-2.52.432-3.624.288-1.104.728-2.064 1.32-2.88a6.14 6.14 0 0 1 2.304-1.92c.944-.464 2.056-.696 3.336-.696.96 0 1.776.16 2.448.48.672.32 1.208.76 1.608 1.32.4.56.688 1.216.864 1.968.176.752.264 1.544.264 2.376V383h3.024v-14.016c0-1.152.104-2.264.312-3.336.208-1.072.568-2.024 1.08-2.856a5.732 5.732 0 0 1 2.064-1.992c.864-.496 1.952-.744 3.264-.744 2.176 0 3.696.536 4.56 1.608.864 1.072 1.296 2.632 1.296 4.68V383h3.024v-16.8c0-5.792-2.736-8.688-8.208-8.688-1.632 0-3.168.4-4.608 1.2-1.44.8-2.528 2.016-3.264 3.648-.448-1.632-1.336-2.848-2.664-3.648-1.328-.8-2.808-1.2-4.44-1.2-2.016 0-3.672.432-4.968 1.296-1.296.864-2.344 2.064-3.144 3.6h-.144v-4.176h-2.784ZM236.224 358.232v33.888h3.024v-13.824h.096a7.16 7.16 0 0 0 1.368 2.352 8.228 8.228 0 0 0 2.04 1.68c.768.448 1.6.784 2.496 1.008.896.224 1.792.336 2.688.336 1.888 0 3.528-.344 4.92-1.032a9.854 9.854 0 0 0 3.48-2.832c.928-1.2 1.616-2.592 2.064-4.176.448-1.584.672-3.256.672-5.016 0-1.76-.224-3.432-.672-5.016-.448-1.584-1.136-2.976-2.064-4.176a10.094 10.094 0 0 0-3.48-2.856c-1.392-.704-3.032-1.056-4.92-1.056-2.016 0-3.816.472-5.4 1.416-1.584.944-2.728 2.28-3.432 4.008h-.096v-4.704h-2.784Zm19.824 12.384c0 1.28-.152 2.552-.456 3.816-.304 1.264-.784 2.392-1.44 3.384a7.93 7.93 0 0 1-2.52 2.424c-1.024.624-2.256.936-3.696.936-1.6 0-2.952-.312-4.056-.936a8.015 8.015 0 0 1-2.688-2.424c-.688-.992-1.184-2.12-1.488-3.384a16.265 16.265 0 0 1-.456-3.816c0-1.408.136-2.752.408-4.032.272-1.28.744-2.4 1.416-3.36.672-.96 1.568-1.728 2.688-2.304 1.12-.576 2.512-.864 4.176-.864 1.44 0 2.672.312 3.696.936a7.93 7.93 0 0 1 2.52 2.424c.656.992 1.136 2.12 1.44 3.384.304 1.264.456 2.536.456 3.816ZM275.24 360.056c1.44 0 2.704.304 3.792.912a8.325 8.325 0 0 1 2.712 2.4c.72.992 1.264 2.12 1.632 3.384.368 1.264.552 2.552.552 3.864 0 1.312-.184 2.6-.552 3.864a10.889 10.889 0 0 1-1.632 3.384 8.325 8.325 0 0 1-2.712 2.4c-1.088.608-2.352.912-3.792.912s-2.704-.304-3.792-.912a8.325 8.325 0 0 1-2.712-2.4 10.889 10.889 0 0 1-1.632-3.384 13.755 13.755 0 0 1-.552-3.864c0-1.312.184-2.6.552-3.864a10.889 10.889 0 0 1 1.632-3.384 8.325 8.325 0 0 1 2.712-2.4c1.088-.608 2.352-.912 3.792-.912Zm0-2.544c-1.888 0-3.56.352-5.016 1.056-1.456.704-2.68 1.648-3.672 2.832s-1.744 2.568-2.256 4.152c-.512 1.584-.768 3.272-.768 5.064 0 1.792.256 3.48.768 5.064s1.264 2.968 2.256 4.152c.992 1.184 2.216 2.12 3.672 2.808 1.456.688 3.128 1.032 5.016 1.032s3.56-.344 5.016-1.032c1.456-.688 2.68-1.624 3.672-2.808.992-1.184 1.744-2.568 2.256-4.152.512-1.584.768-3.272.768-5.064 0-1.792-.256-3.48-.768-5.064s-1.264-2.968-2.256-4.152c-.992-1.184-2.216-2.128-3.672-2.832-1.456-.704-3.128-1.056-5.016-1.056ZM292.416 358.232V383h3.024v-14.448c.032-1.216.232-2.344.6-3.384s.88-1.936 1.536-2.688a7.013 7.013 0 0 1 2.4-1.776c.944-.432 2.024-.648 3.24-.648 1.216 0 2.232.192 3.048.576.816.384 1.464.912 1.944 1.584s.816 1.464 1.008 2.376c.192.912.288 1.896.288 2.952V383h3.024v-15.936c0-1.472-.144-2.8-.432-3.984-.288-1.184-.784-2.184-1.488-3-.704-.816-1.64-1.448-2.808-1.896-1.168-.448-2.616-.672-4.344-.672-1.76 0-3.376.456-4.848 1.368-1.472.912-2.496 2.12-3.072 3.624h-.096v-4.272h-3.024ZM337.048 368.888h-16.032c.128-1.12.392-2.216.792-3.288a9.805 9.805 0 0 1 1.608-2.832 7.73 7.73 0 0 1 2.448-1.968c.96-.496 2.064-.744 3.312-.744 1.216 0 2.304.248 3.264.744a7.73 7.73 0 0 1 2.448 1.968 9.067 9.067 0 0 1 1.56 2.808c.368 1.056.568 2.16.6 3.312Zm-16.032 2.544h19.056a19.59 19.59 0 0 0-.48-5.112c-.384-1.68-1.016-3.168-1.896-4.464a10.13 10.13 0 0 0-3.432-3.144c-1.408-.8-3.104-1.2-5.088-1.2-1.952 0-3.64.376-5.064 1.128-1.424.752-2.584 1.744-3.48 2.976-.896 1.232-1.56 2.632-1.992 4.2a17.99 17.99 0 0 0-.648 4.8c0 1.76.216 3.432.648 5.016.432 1.584 1.096 2.976 1.992 4.176.896 1.2 2.056 2.144 3.48 2.832 1.424.688 3.112 1.032 5.064 1.032 3.136 0 5.56-.768 7.272-2.304 1.712-1.536 2.888-3.712 3.528-6.528h-3.024c-.48 1.92-1.344 3.456-2.592 4.608-1.248 1.152-2.976 1.728-5.184 1.728-1.44 0-2.672-.304-3.696-.912a8.381 8.381 0 0 1-2.544-2.304 9.299 9.299 0 0 1-1.464-3.144 13.42 13.42 0 0 1-.456-3.384ZM345.104 358.232V383h3.024v-14.448c.032-1.216.232-2.344.6-3.384s.88-1.936 1.536-2.688a7.013 7.013 0 0 1 2.4-1.776c.944-.432 2.024-.648 3.24-.648 1.216 0 2.232.192 3.048.576.816.384 1.464.912 1.944 1.584s.816 1.464 1.008 2.376c.192.912.288 1.896.288 2.952V383h3.024v-15.936c0-1.472-.144-2.8-.432-3.984-.288-1.184-.784-2.184-1.488-3-.704-.816-1.64-1.448-2.808-1.896-1.168-.448-2.616-.672-4.344-.672-1.76 0-3.376.456-4.848 1.368-1.472.912-2.496 2.12-3.072 3.624h-.096v-4.272h-3.024ZM376.728 358.232v-7.44h-3.024v7.44h-4.32v2.544h4.32v16.944c-.032 2.112.352 3.56 1.152 4.344.8.784 2.208 1.176 4.224 1.176.448 0 .896-.016 1.344-.048.448-.032.896-.048 1.344-.048V380.6c-.864.096-1.728.144-2.592.144-1.088-.064-1.768-.376-2.04-.936s-.408-1.336-.408-2.328v-16.704h5.04v-2.544h-5.04ZM402.056 348.728V383h22.464v-2.784h-19.2v-31.488zM428.304 348.728v4.848h3.024v-4.848h-3.024Zm0 9.504V383h3.024v-24.768h-3.024ZM438.136 348.728V383h2.784v-4.704h.096c.704 1.728 1.848 3.056 3.432 3.984 1.584.928 3.384 1.392 5.4 1.392 1.888 0 3.528-.344 4.92-1.032a9.854 9.854 0 0 0 3.48-2.832c.928-1.2 1.616-2.592 2.064-4.176.448-1.584.672-3.256.672-5.016 0-1.76-.224-3.432-.672-5.016-.448-1.584-1.136-2.976-2.064-4.176a10.094 10.094 0 0 0-3.48-2.856c-1.392-.704-3.032-1.056-4.92-1.056-.896 0-1.792.112-2.688.336a9.033 9.033 0 0 0-2.496 1.032 8.695 8.695 0 0 0-2.04 1.704 7.16 7.16 0 0 0-1.368 2.352h-.096v-14.208h-3.024Zm19.824 21.888c0 1.28-.152 2.552-.456 3.816-.304 1.264-.784 2.392-1.44 3.384a7.93 7.93 0 0 1-2.52 2.424c-1.024.624-2.256.936-3.696.936-1.6 0-2.952-.312-4.056-.936a8.015 8.015 0 0 1-2.688-2.424c-.688-.992-1.184-2.12-1.488-3.384a16.265 16.265 0 0 1-.456-3.816c0-1.28.152-2.552.456-3.816.304-1.264.8-2.392 1.488-3.384a8.015 8.015 0 0 1 2.688-2.424c1.104-.624 2.456-.936 4.056-.936 1.44 0 2.672.312 3.696.936a7.93 7.93 0 0 1 2.52 2.424c.656.992 1.136 2.12 1.44 3.384.304 1.264.456 2.536.456 3.816ZM466.688 358.232V383h3.024v-13.2c0-1.312.224-2.52.672-3.624a8.34 8.34 0 0 1 1.896-2.856 8.425 8.425 0 0 1 2.904-1.848c1.12-.432 2.368-.616 3.744-.552v-3.024c-2.24-.096-4.168.4-5.784 1.488-1.616 1.088-2.808 2.64-3.576 4.656h-.096v-5.808h-2.784ZM482.52 365.816h3.024c.064-2.016.704-3.48 1.92-4.392 1.216-.912 2.784-1.368 4.704-1.368.896 0 1.736.072 2.52.216.784.144 1.472.408 2.064.792a3.985 3.985 0 0 1 1.392 1.56c.336.656.504 1.496.504 2.52 0 .672-.088 1.216-.264 1.632a2.334 2.334 0 0 1-.744.984c-.32.24-.72.408-1.2.504-.48.096-1.04.176-1.68.24-1.632.192-3.24.392-4.824.6-1.584.208-3.008.568-4.272 1.08-1.264.512-2.28 1.256-3.048 2.232-.768.976-1.152 2.328-1.152 4.056 0 1.248.216 2.328.648 3.24a6.198 6.198 0 0 0 1.776 2.256c.752.592 1.632 1.024 2.64 1.296 1.008.272 2.088.408 3.24.408 1.216 0 2.264-.112 3.144-.336a8.632 8.632 0 0 0 2.352-.96 8.232 8.232 0 0 0 1.872-1.56 20.207 20.207 0 0 0 1.656-2.136h.096c0 .64.04 1.224.12 1.752.08.528.248.984.504 1.368.256.384.616.68 1.08.888.464.208 1.08.312 1.848.312.416 0 .76-.016 1.032-.048s.584-.08.936-.144v-2.544a2.338 2.338 0 0 1-.96.192c-1.184 0-1.776-.608-1.776-1.824V365.48c0-1.664-.272-3.016-.816-4.056-.544-1.04-1.248-1.848-2.112-2.424a7.887 7.887 0 0 0-2.928-1.176 17.346 17.346 0 0 0-3.264-.312c-1.44 0-2.752.16-3.936.48-1.184.32-2.216.816-3.096 1.488-.88.672-1.576 1.536-2.088 2.592s-.816 2.304-.912 3.744Zm16.128 3.648v3.936c0 1.216-.232 2.304-.696 3.264a7.457 7.457 0 0 1-1.872 2.448c-.784.672-1.704 1.184-2.76 1.536-1.056.352-2.16.528-3.312.528a6.486 6.486 0 0 1-2.064-.336 5.343 5.343 0 0 1-1.776-.984 4.95 4.95 0 0 1-1.224-1.536c-.304-.592-.456-1.272-.456-2.04 0-1.216.36-2.152 1.08-2.808.72-.656 1.64-1.16 2.76-1.512 1.12-.352 2.36-.616 3.72-.792a89.95 89.95 0 0 0 3.96-.6c.416-.064.896-.176 1.44-.336.544-.16.912-.416 1.104-.768h.096ZM508.72 358.232V383h3.024v-13.2c0-1.312.224-2.52.672-3.624a8.34 8.34 0 0 1 1.896-2.856 8.425 8.425 0 0 1 2.904-1.848c1.12-.432 2.368-.616 3.744-.552v-3.024c-2.24-.096-4.168.4-5.784 1.488-1.616 1.088-2.808 2.64-3.576 4.656h-.096v-5.808h-2.784ZM522.056 358.232l9.888 24.672-1.056 2.784a95.085 95.085 0 0 1-.72 1.584 4.54 4.54 0 0 1-.816 1.224c-.32.336-.696.6-1.128.792-.432.192-.984.288-1.656.288a7.29 7.29 0 0 1-1.032-.072 27.56 27.56 0 0 1-1.032-.168v2.544c.256.096.552.152.888.168.336.016.808.04 1.416.072.96 0 1.752-.088 2.376-.264a4.216 4.216 0 0 0 1.632-.864c.464-.4.888-.944 1.272-1.632s.8-1.56 1.248-2.616l10.752-28.512h-3.024l-7.632 21.12-8.16-21.12h-3.216ZM82.432 432.776v-2.544h-4.896v-2.16c0-.672.016-1.296.048-1.872.032-.576.152-1.08.36-1.512a2.35 2.35 0 0 1 .984-1.032c.448-.256 1.088-.384 1.92-.384.352 0 .704.024 1.056.072.352.048.736.104 1.152.168v-2.592c-.48-.064-.912-.112-1.296-.144-.384-.032-.8-.048-1.248-.048-1.216 0-2.216.176-3 .528-.784.352-1.4.848-1.848 1.488-.448.64-.752 1.408-.912 2.304-.16.896-.24 1.872-.24 2.928v2.256h-4.224v2.544h4.224V455h3.024v-22.224h4.896ZM96.776 432.056c1.44 0 2.704.304 3.792.912a8.325 8.325 0 0 1 2.712 2.4c.72.992 1.264 2.12 1.632 3.384.368 1.264.552 2.552.552 3.864 0 1.312-.184 2.6-.552 3.864a10.889 10.889 0 0 1-1.632 3.384 8.325 8.325 0 0 1-2.712 2.4c-1.088.608-2.352.912-3.792.912s-2.704-.304-3.792-.912a8.325 8.325 0 0 1-2.712-2.4 10.889 10.889 0 0 1-1.632-3.384 13.755 13.755 0 0 1-.552-3.864c0-1.312.184-2.6.552-3.864a10.889 10.889 0 0 1 1.632-3.384 8.325 8.325 0 0 1 2.712-2.4c1.088-.608 2.352-.912 3.792-.912Zm0-2.544c-1.888 0-3.56.352-5.016 1.056-1.456.704-2.68 1.648-3.672 2.832s-1.744 2.568-2.256 4.152c-.512 1.584-.768 3.272-.768 5.064 0 1.792.256 3.48.768 5.064s1.264 2.968 2.256 4.152c.992 1.184 2.216 2.12 3.672 2.808 1.456.688 3.128 1.032 5.016 1.032s3.56-.344 5.016-1.032c1.456-.688 2.68-1.624 3.672-2.808.992-1.184 1.744-2.568 2.256-4.152.512-1.584.768-3.272.768-5.064 0-1.792-.256-3.48-.768-5.064s-1.264-2.968-2.256-4.152c-.992-1.184-2.216-2.128-3.672-2.832-1.456-.704-3.128-1.056-5.016-1.056ZM114 430.232V455h3.024v-13.2c0-1.312.224-2.52.672-3.624a8.34 8.34 0 0 1 1.896-2.856 8.425 8.425 0 0 1 2.904-1.848c1.12-.432 2.368-.616 3.744-.552v-3.024c-2.24-.096-4.168.4-5.784 1.488-1.616 1.088-2.808 2.64-3.576 4.656h-.096v-5.808H114Z"/><path fill="#00C16A" d="M141.344 420.728h6.24l8.592 27.12h.096l8.784-27.12h6.096L159.44 455h-6.672zM194.808 455h-5.376v-3.456h-.096c-.672 1.248-1.672 2.248-3 3-1.328.752-2.68 1.128-4.056 1.128-3.264 0-5.624-.808-7.08-2.424-1.456-1.616-2.184-4.056-2.184-7.32v-15.744h5.472V445.4c0 2.176.416 3.712 1.248 4.608.832.896 2 1.344 3.504 1.344 1.152 0 2.112-.176 2.88-.528.768-.352 1.392-.824 1.872-1.416.48-.592.824-1.304 1.032-2.136.208-.832.312-1.728.312-2.688v-14.4h5.472V455ZM218.608 440.408a8.824 8.824 0 0 0-.552-2.496 6.65 6.65 0 0 0-1.248-2.088 6.18 6.18 0 0 0-1.92-1.44c-.752-.368-1.592-.552-2.52-.552-.96 0-1.832.168-2.616.504-.784.336-1.456.8-2.016 1.392a6.885 6.885 0 0 0-1.344 2.088c-.336.8-.52 1.664-.552 2.592h12.768Zm-12.768 3.6c0 .96.136 1.888.408 2.784a6.86 6.86 0 0 0 1.224 2.352 5.9 5.9 0 0 0 2.064 1.608c.832.4 1.824.6 2.976.6 1.6 0 2.888-.344 3.864-1.032.976-.688 1.704-1.72 2.184-3.096h5.184c-.288 1.344-.784 2.544-1.488 3.6a10.353 10.353 0 0 1-2.544 2.664 10.98 10.98 0 0 1-3.336 1.632c-1.232.368-2.52.552-3.864.552-1.952 0-3.68-.32-5.184-.96-1.504-.64-2.776-1.536-3.816-2.688-1.04-1.152-1.824-2.528-2.352-4.128-.528-1.6-.792-3.36-.792-5.28 0-1.76.28-3.432.84-5.016.56-1.584 1.36-2.976 2.4-4.176a11.477 11.477 0 0 1 3.768-2.856c1.472-.704 3.136-1.056 4.992-1.056 1.952 0 3.704.408 5.256 1.224 1.552.816 2.84 1.896 3.864 3.24 1.024 1.344 1.768 2.888 2.232 4.632.464 1.744.584 3.544.36 5.4h-18.24Z"/><path fill="#E1E1E1" d="M243.312 437.816h3.024c.064-2.016.704-3.48 1.92-4.392 1.216-.912 2.784-1.368 4.704-1.368.896 0 1.736.072 2.52.216.784.144 1.472.408 2.064.792a3.985 3.985 0 0 1 1.392 1.56c.336.656.504 1.496.504 2.52 0 .672-.088 1.216-.264 1.632a2.334 2.334 0 0 1-.744.984c-.32.24-.72.408-1.2.504-.48.096-1.04.176-1.68.24-1.632.192-3.24.392-4.824.6-1.584.208-3.008.568-4.272 1.08-1.264.512-2.28 1.256-3.048 2.232-.768.976-1.152 2.328-1.152 4.056 0 1.248.216 2.328.648 3.24a6.198 6.198 0 0 0 1.776 2.256c.752.592 1.632 1.024 2.64 1.296 1.008.272 2.088.408 3.24.408 1.216 0 2.264-.112 3.144-.336a8.632 8.632 0 0 0 2.352-.96 8.232 8.232 0 0 0 1.872-1.56 20.207 20.207 0 0 0 1.656-2.136h.096c0 .64.04 1.224.12 1.752.08.528.248.984.504 1.368.256.384.616.68 1.08.888.464.208 1.08.312 1.848.312.416 0 .76-.016 1.032-.048s.584-.08.936-.144v-2.544a2.338 2.338 0 0 1-.96.192c-1.184 0-1.776-.608-1.776-1.824V437.48c0-1.664-.272-3.016-.816-4.056-.544-1.04-1.248-1.848-2.112-2.424a7.887 7.887 0 0 0-2.928-1.176 17.346 17.346 0 0 0-3.264-.312c-1.44 0-2.752.16-3.936.48-1.184.32-2.216.816-3.096 1.488-.88.672-1.576 1.536-2.088 2.592s-.816 2.304-.912 3.744Zm16.128 3.648v3.936c0 1.216-.232 2.304-.696 3.264a7.457 7.457 0 0 1-1.872 2.448c-.784.672-1.704 1.184-2.76 1.536-1.056.352-2.16.528-3.312.528a6.486 6.486 0 0 1-2.064-.336 5.343 5.343 0 0 1-1.776-.984 4.95 4.95 0 0 1-1.224-1.536c-.304-.592-.456-1.272-.456-2.04 0-1.216.36-2.152 1.08-2.808.72-.656 1.64-1.16 2.76-1.512 1.12-.352 2.36-.616 3.72-.792a89.95 89.95 0 0 0 3.96-.6c.416-.064.896-.176 1.44-.336.544-.16.912-.416 1.104-.768h.096ZM269.464 430.232V455h3.024v-14.448c.032-1.216.232-2.344.6-3.384s.88-1.936 1.536-2.688a7.013 7.013 0 0 1 2.4-1.776c.944-.432 2.024-.648 3.24-.648 1.216 0 2.232.192 3.048.576.816.384 1.464.912 1.944 1.584s.816 1.464 1.008 2.376c.192.912.288 1.896.288 2.952V455h3.024v-15.936c0-1.472-.144-2.8-.432-3.984-.288-1.184-.784-2.184-1.488-3-.704-.816-1.64-1.448-2.808-1.896-1.168-.448-2.616-.672-4.344-.672-1.76 0-3.376.456-4.848 1.368-1.472.912-2.496 2.12-3.072 3.624h-.096v-4.272h-3.024ZM318.08 455v-34.272h-3.024v14.208h-.096a7.16 7.16 0 0 0-1.368-2.352 8.695 8.695 0 0 0-2.04-1.704 9.089 9.089 0 0 0-2.472-1.032 10.95 10.95 0 0 0-2.712-.336c-1.888 0-3.528.352-4.92 1.056a10.094 10.094 0 0 0-3.48 2.856c-.928 1.2-1.616 2.592-2.064 4.176a18.348 18.348 0 0 0-.672 5.016c0 1.76.224 3.432.672 5.016.448 1.584 1.136 2.976 2.064 4.176a9.854 9.854 0 0 0 3.48 2.832c1.392.688 3.032 1.032 4.92 1.032a10 10 0 0 0 2.712-.384 11.045 11.045 0 0 0 2.568-1.08 9.189 9.189 0 0 0 2.136-1.704 7.116 7.116 0 0 0 1.416-2.208h.096V455h2.784Zm-19.824-12.384c0-1.28.152-2.552.456-3.816.304-1.264.784-2.392 1.44-3.384a7.93 7.93 0 0 1 2.52-2.424c1.024-.624 2.256-.936 3.696-.936 1.6 0 2.952.312 4.056.936 1.104.624 2 1.432 2.688 2.424.688.992 1.184 2.12 1.488 3.384.304 1.264.456 2.536.456 3.816 0 1.28-.152 2.552-.456 3.816-.304 1.264-.8 2.392-1.488 3.384a8.015 8.015 0 0 1-2.688 2.424c-1.104.624-2.456.936-4.056.936-1.44 0-2.672-.312-3.696-.936a7.93 7.93 0 0 1-2.52-2.424c-.656-.992-1.136-2.12-1.44-3.384a16.265 16.265 0 0 1-.456-3.816Z"/><path fill="#00C16A" d="M339.712 420.728h6.336l15.648 25.248h.096v-25.248h5.712V455h-6.336l-15.6-25.2h-.144V455h-5.712zM396.632 455h-5.376v-3.456h-.096c-.672 1.248-1.672 2.248-3 3-1.328.752-2.68 1.128-4.056 1.128-3.264 0-5.624-.808-7.08-2.424-1.456-1.616-2.184-4.056-2.184-7.32v-15.744h5.472V445.4c0 2.176.416 3.712 1.248 4.608.832.896 2 1.344 3.504 1.344 1.152 0 2.112-.176 2.88-.528.768-.352 1.392-.824 1.872-1.416.48-.592.824-1.304 1.032-2.136.208-.832.312-1.728.312-2.688v-14.4h5.472V455ZM410.064 441.944l-8.592-11.76h6.624l5.184 7.632 5.424-7.632h6.336l-8.448 11.472L426.096 455h-6.576l-6.288-9.168-6.096 9.168h-6.432zM427.672 430.184h4.128v-7.44h5.472v7.44h4.944v4.08h-4.944v13.248c0 .576.024 1.072.072 1.488.048.416.16.768.336 1.056.176.288.44.504.792.648.352.144.832.216 1.44.216.384 0 .768-.008 1.152-.024a5.721 5.721 0 0 0 1.152-.168v4.224c-.608.064-1.2.128-1.776.192-.576.064-1.168.096-1.776.096-1.44 0-2.6-.136-3.48-.408-.88-.272-1.568-.672-2.064-1.2-.496-.528-.832-1.192-1.008-1.992-.176-.8-.28-1.712-.312-2.736v-14.64h-4.128v-4.08Z"/></g><g fill="#FFF" fill-rule="nonzero" mask="url(#b)"><path d="M211.85 138.4h-6.66V95.77h5.73l.57 5.475h.36V138.4Zm22.08-27.075c0 3.33-.468 6.222-1.403 8.677-.934 2.456-2.32 4.355-4.154 5.7-1.835 1.346-4.063 2.018-6.683 2.018-2.15 0-4.01-.428-5.58-1.282a11.064 11.064 0 0 1-3.855-3.443h-1.47v-4.665c1.27 1.35 2.588 2.325 3.953 2.925 1.364.6 2.772.9 4.222.9 1.78 0 3.275-.395 4.485-1.185 1.21-.79 2.127-1.988 2.752-3.593s.938-3.622.938-6.052c0-2.4-.305-4.388-.915-5.963-.61-1.575-1.515-2.755-2.715-3.54-1.2-.785-2.695-1.177-4.485-1.177-1.47 0-2.885.297-4.245.892-1.36.595-2.69 1.568-3.99 2.918V99.79h1.44a13.295 13.295 0 0 1 4.132-3.458c1.595-.855 3.453-1.282 5.573-1.282 2.6 0 4.795.672 6.585 2.017 1.79 1.346 3.14 3.236 4.05 5.67.91 2.436 1.365 5.298 1.365 8.588ZM256.545 101.47h.36v25.5h-6.66V99.82l1.35 1.35h-9.18v-5.4h13.56l.57 5.7Zm15.09.165c-2.62 0-4.784.092-6.491.277a19.931 19.931 0 0 0-4.823 1.117c-1.507.56-3.086 1.411-4.736 2.551v-5.28h1.725c1.62-1.8 3.277-3.123 4.972-3.968 1.695-.844 3.803-1.267 6.323-1.267 1.105 0 2.115.095 3.03.285v6.285Zm-29.22 19.965h24.915v5.4h-24.915v-5.4ZM310.33 111.475c0 3.57-.676 6.573-2.026 9.007-1.35 2.435-3.182 4.25-5.497 5.445-2.315 1.195-4.918 1.793-7.808 1.793-2.89 0-5.49-.597-7.8-1.793-2.31-1.195-4.142-3.012-5.497-5.452-1.355-2.44-2.033-5.44-2.033-9 0-3.57.678-6.588 2.033-9.052 1.355-2.466 3.19-4.31 5.505-5.536 2.315-1.225 4.912-1.837 7.792-1.837s5.48.612 7.8 1.837c2.32 1.225 4.155 3.068 5.505 5.528 1.35 2.46 2.025 5.48 2.025 9.06Zm-6.796-.015c0-2.52-.357-4.605-1.072-6.255-.715-1.65-1.708-2.868-2.978-3.653-1.27-.785-2.765-1.177-4.485-1.177-1.72 0-3.217.392-4.492 1.177s-2.27 2.003-2.985 3.653c-.715 1.65-1.073 3.735-1.073 6.255 0 2.51.358 4.58 1.073 6.21s1.707 2.825 2.977 3.585c1.27.76 2.77 1.14 4.5 1.14s3.228-.38 4.493-1.14c1.265-.76 2.255-1.955 2.97-3.585.715-1.63 1.072-3.7 1.072-6.21ZM325.01 95.77 349.713 127h-7.95L317.15 95.77h7.86Zm16.754 0h7.485l-13.635 17.37-3.66-4.155 9.81-13.215ZM324.394 127h-7.71l14.235-18.03 3.465 4.44-9.99 13.59ZM365.474 127V99.25l1.35 1.86h-9.435v-5.34l13.92-.705.825.795V127h-6.66Zm-8.085-5.385h22.77V127h-22.77v-5.385Zm10.245-32.595c-.92 0-1.733-.175-2.438-.525a3.9 3.9 0 0 1-1.65-1.515c-.395-.66-.592-1.425-.592-2.295 0-1.32.43-2.365 1.29-3.135.86-.77 1.99-1.155 3.39-1.155 1.4 0 2.53.385 3.39 1.155.86.77 1.29 1.815 1.29 3.135 0 1.33-.43 2.385-1.29 3.165-.86.78-1.99 1.17-3.39 1.17ZM396.234 127h-6.09V95.77h5.16l.57 5.85h.36V127Zm7.83 0v-22.815c0-1.29-.283-2.203-.848-2.738-.565-.535-1.312-.802-2.242-.802-1.18 0-2.245.383-3.195 1.147-.95.766-1.76 1.783-2.43 3.053l-.405-4.41h1.365c.76-1.62 1.812-2.915 3.157-3.885 1.345-.97 2.898-1.455 4.658-1.455 1.93 0 3.415.578 4.455 1.733 1.04 1.154 1.565 2.902 1.575 5.242l.03 24.93h-6.12Zm13.95 0v-22.815c0-1.28-.288-2.19-.863-2.73s-1.322-.81-2.242-.81c-.81 0-1.57.183-2.28.547a6.635 6.635 0 0 0-1.913 1.493c-.565.63-1.057 1.35-1.477 2.16l-.345-4.41h1.44c.75-1.63 1.782-2.928 3.097-3.893 1.315-.965 2.858-1.447 4.628-1.447 1.93 0 3.417.58 4.462 1.74 1.045 1.16 1.568 2.905 1.568 5.235l.045 24.93h-6.12ZM446.928 95.05c2.68 0 4.935.323 6.765.968 1.83.644 3.233 1.692 4.208 3.142.975 1.45 1.462 3.365 1.462 5.745v14.94c0 .73.103 1.278.308 1.642.205.365.552.6 1.042.706.49.105 1.195.097 2.115-.023V127c-1.5.42-2.91.63-4.23.63-1.44 0-2.565-.243-3.375-.727-.81-.486-1.372-1.13-1.687-1.936-.315-.805-.473-1.767-.473-2.887l-.36-.54v-16.29c0-1.43-.257-2.555-.772-3.375a4.003 4.003 0 0 0-2.138-1.703c-.91-.315-2.04-.472-3.39-.472-1.31.01-2.427.165-3.352.465-.925.3-1.655.805-2.19 1.515-.535.71-.808 1.65-.818 2.82l-.015 1.275h-6.075v-1.59c0-2.83 1.048-5.06 3.143-6.69 2.095-1.63 5.372-2.445 9.832-2.445Zm8.49 18.54c-.9-.15-1.777-.27-2.632-.36a24.7 24.7 0 0 0-2.588-.135c-2.23 0-4.107.188-5.632.563-1.525.374-2.693.957-3.503 1.747-.81.79-1.215 1.81-1.215 3.06 0 .92.218 1.705.653 2.355.435.65 1.062 1.145 1.882 1.485.82.34 1.8.51 2.94.51 1.51 0 2.918-.285 4.223-.855 1.305-.57 2.652-1.4 4.042-2.49l.045 3.705h-1.17l-.48.465c-.94.85-1.867 1.562-2.782 2.138-.915.574-1.968 1.042-3.158 1.402-1.19.36-2.485.54-3.885.54-1.87 0-3.502-.335-4.897-1.005-1.395-.67-2.47-1.635-3.225-2.895-.755-1.26-1.133-2.76-1.133-4.5 0-2.81.963-4.942 2.888-6.397 1.925-1.456 4.37-2.406 7.335-2.85 2.965-.445 6.432-.633 10.402-.563l1.89 4.08Z"/></g></g></svg>