<svg width="261" height="53" viewBox="0 0 261 53" xmlns="http://www.w3.org/2000/svg"><g fill="none" fill-rule="evenodd"><path d="M143.92605,28.756246 C139.648577,21.3419592 130.170533,18.7990694 122.756246,23.0765425 C115.341959,27.3540156 112.799069,36.8320597 117.076542,44.2463465 C119.843582,49.0425491 124.959176,51.9982248 130.49633,51.9999992 C136.033483,52.0017736 141.15097,49.0493771 143.921083,44.2549489 C146.691197,39.4605208 146.69309,33.5524486 143.92605,28.756246 Z M136.745486,47.3255091 C130.766723,50.7747957 123.123778,48.7242496 119.674491,42.745486 C116.225204,36.7667224 118.275751,29.1237776 124.254514,25.6744909 C130.233278,22.2252044 137.876222,24.2757506 141.325509,30.2545141 C144.774796,36.2332776 142.72425,43.8762223 136.745486,47.3255091 Z M131.456522,33.3748983 C130.911877,32.8750339 130.088123,32.8750339 129.543478,33.3748983 L125.430435,37.4971838 C124.856522,38.0860817 124.856522,38.9694286 125.430435,39.5583266 C126.004348,40.1472245 126.865217,40.1472245 127.43913,39.5583266 L130.5,36.4175376 L133.56087,39.5583266 C134.134783,40.1472245 134.995652,40.1472245 135.569565,39.5583266 C136.143478,38.9694286 136.143478,38.0860817 135.569565,37.4971838 L131.456522,33.3748983 Z" fill="#bbb" fill-rule="nonzero"/><path d="M161,36 L261,36 L261,37 L161,37 L161,36 Z M0,36 L100,36 L100,37 L0,37 L0,36 Z" fill="#D8D8D8"/></g></svg>